<svg width="32" height="32" viewBox="0 0 32 32" fill="none" xmlns="http://www.w3.org/2000/svg">
<path d="M8.82135 28C8.20713 28 7.69469 27.7947 7.28402 27.384C6.87335 26.9733 6.66758 26.4609 6.66669 25.8467V11.4867C6.66669 10.8733 6.87246 10.3613 7.28402 9.95067C7.69558 9.54 8.20802 9.33422 8.82135 9.33333H11.3334V8.66667C11.3334 7.37067 11.7871 6.26889 12.6947 5.36133C13.6022 4.45378 14.704 4 16 4C17.296 4 18.3978 4.45378 19.3054 5.36133C20.2129 6.26889 20.6667 7.37067 20.6667 8.66667V9.33333H23.18C23.7934 9.33333 24.3054 9.53911 24.716 9.95067C25.1267 10.3622 25.3325 10.8747 25.3334 11.488V25.8467C25.3334 26.46 25.1276 26.9724 24.716 27.384C24.3045 27.7956 23.7925 28.0009 23.18 28H8.82135ZM8.82135 26.6667H23.18C23.3845 26.6667 23.5725 26.5813 23.744 26.4107C23.9156 26.24 24.0009 26.0516 24 25.8453V11.488C24 11.2827 23.9147 11.0942 23.744 10.9227C23.5734 10.7511 23.3849 10.6658 23.1787 10.6667H20.6667V14C20.6667 14.1902 20.6031 14.3489 20.476 14.476C20.3489 14.6031 20.1902 14.6667 20 14.6667C19.8098 14.6667 19.6511 14.6031 19.524 14.476C19.3969 14.3489 19.3334 14.1902 19.3334 14V10.6667H12.6667V14C12.6667 14.1902 12.6031 14.3489 12.476 14.476C12.3489 14.6031 12.1902 14.6667 12 14.6667C11.8098 14.6667 11.6511 14.6031 11.524 14.476C11.3969 14.3489 11.3334 14.1902 11.3334 14V10.6667H8.82135C8.61602 10.6667 8.42758 10.752 8.25602 10.9227C8.08446 11.0933 7.99913 11.2818 8.00002 11.488V25.8467C8.00002 26.0511 8.08535 26.2391 8.25602 26.4107C8.42669 26.5822 8.61469 26.6676 8.82002 26.6667M12.6667 9.33333H19.3334V8.66667C19.3334 7.728 19.0125 6.93778 18.3707 6.296C17.7289 5.65422 16.9387 5.33333 16 5.33333C15.0614 5.33333 14.2711 5.65422 13.6294 6.296C12.9876 6.93778 12.6667 7.728 12.6667 8.66667V9.33333Z" fill="white"/>
</svg>
