<svg width="60" height="60" viewBox="0 0 60 60" fill="none" xmlns="http://www.w3.org/2000/svg">
<rect width="60" height="60" rx="30" fill="white"/>
<mask id="mask0_59_1150" style="mask-type:alpha" maskUnits="userSpaceOnUse" x="10" y="10" width="40" height="40">
<rect x="10" y="10" width="40" height="40" fill="#D9D9D9"/>
</mask>
<g mask="url(#mask0_59_1150)">
<path d="M30.0003 43.878L28.1607 42.2243C25.398 39.7179 23.1132 37.5641 21.3066 35.763C19.4999 33.9617 18.0682 32.3585 17.0116 30.9535C15.9549 29.5487 15.2167 28.2672 14.797 27.1089C14.377 25.9508 14.167 24.7757 14.167 23.5835C14.167 21.2182 14.9645 19.2379 16.5595 17.6426C18.1548 16.0476 20.135 15.2501 22.5003 15.2501C23.9553 15.2501 25.3303 15.5904 26.6253 16.271C27.9203 16.9515 29.0453 17.9275 30.0003 19.1989C30.9553 17.9275 32.0803 16.9515 33.3753 16.271C34.6703 15.5904 36.0453 15.2501 37.5003 15.2501C39.8656 15.2501 41.8459 16.0476 43.4412 17.6426C45.0362 19.2379 45.8337 21.2182 45.8337 23.5835C45.8337 24.7757 45.6237 25.9508 45.2037 27.1089C44.7839 28.2672 44.0457 29.5487 42.9891 30.9535C41.9324 32.3585 40.5034 33.9617 38.702 35.763C36.9009 37.5641 34.6135 39.7179 31.8399 42.2243L30.0003 43.878ZM30.0003 40.5001C32.667 38.1007 34.8614 36.044 36.5837 34.3301C38.3059 32.6165 39.667 31.1278 40.667 29.8639C41.667 28.6 42.3614 27.4776 42.7503 26.4968C43.1392 25.5162 43.3337 24.5451 43.3337 23.5835C43.3337 21.9168 42.7781 20.5279 41.667 19.4168C40.5559 18.3057 39.167 17.7501 37.5003 17.7501C36.1842 17.7501 34.9678 18.1235 33.8512 18.8701C32.7348 19.6171 31.8507 20.6561 31.1991 21.9872H28.8016C28.1391 20.6453 27.2523 19.6036 26.1412 18.8622C25.03 18.1208 23.8164 17.7501 22.5003 17.7501C20.8442 17.7501 19.458 18.3057 18.3416 19.4168C17.2252 20.5279 16.667 21.9168 16.667 23.5835C16.667 24.5451 16.8614 25.5162 17.2503 26.4968C17.6392 27.4776 18.3337 28.6 19.3337 29.8639C20.3337 31.1278 21.6948 32.6139 23.417 34.3222C25.1392 36.0305 27.3337 38.0898 30.0003 40.5001Z" fill="#141311"/>
</g>
</svg>
