<svg width="48" height="48" viewBox="0 0 48 48" fill="none" xmlns="http://www.w3.org/2000/svg">
<path d="M21.178 25H30C30.284 25 30.5213 24.904 30.712 24.712C30.9027 24.52 30.9987 24.282 31 23.998C31.0013 23.714 30.9053 23.4767 30.712 23.286C30.5187 23.0953 30.2813 23 30 23H21.178L24.708 19.468C24.8947 19.2907 24.988 19.064 24.988 18.788C24.988 18.512 24.8947 18.28 24.708 18.092C24.5213 17.904 24.29 17.8107 24.014 17.812C23.7367 17.812 23.5093 17.9053 23.332 18.092L18.554 22.87C18.2313 23.1927 18.07 23.5693 18.07 24C18.07 24.4307 18.2313 24.808 18.554 25.132L23.332 29.908C23.5187 30.0947 23.748 30.1813 24.02 30.168C24.292 30.156 24.5213 30.056 24.708 29.868C24.8947 29.68 24.988 29.4487 24.988 29.174C24.988 28.8993 24.8947 28.6727 24.708 28.494L21.178 25ZM24.006 42C21.518 42 19.178 41.528 16.986 40.584C14.7953 39.6387 12.8893 38.356 11.268 36.736C9.64667 35.116 8.36333 33.212 7.418 31.024C6.47267 28.836 6 26.4967 6 24.006C6 21.5153 6.47267 19.1753 7.418 16.986C8.362 14.7953 9.64267 12.8893 11.26 11.268C12.8773 9.64667 14.782 8.36333 16.974 7.418C19.166 6.47267 21.506 6 23.994 6C26.482 6 28.822 6.47267 31.014 7.418C33.2047 8.362 35.1107 9.64333 36.732 11.262C38.3533 12.8807 39.6367 14.7853 40.582 16.976C41.5273 19.1667 42 21.506 42 23.994C42 26.482 41.528 28.822 40.584 31.014C39.64 33.206 38.3573 35.112 36.736 36.732C35.1147 38.352 33.2107 39.6353 31.024 40.582C28.8373 41.5287 26.498 42.0013 24.006 42ZM24 40C28.4667 40 32.25 38.45 35.35 35.35C38.45 32.25 40 28.4667 40 24C40 19.5333 38.45 15.75 35.35 12.65C32.25 9.55 28.4667 8 24 8C19.5333 8 15.75 9.55 12.65 12.65C9.55 15.75 8 19.5333 8 24C8 28.4667 9.55 32.25 12.65 35.35C15.75 38.45 19.5333 40 24 40Z" fill="#1E1E1E"/>
</svg>
