<svg width="99" height="75" viewBox="0 0 99 75" fill="none" xmlns="http://www.w3.org/2000/svg">
<path d="M22.5 44.4414C22.5 45.4844 22.3008 46.4629 21.9023 47.377C21.5039 48.291 20.959 49.0938 20.2676 49.7852C19.5879 50.4648 18.791 51.0039 17.877 51.4023C16.9629 51.8008 15.9844 52 14.9414 52H2.33789V26.793H14.9414C15.9844 26.793 16.9629 26.9922 17.877 27.3906C18.791 27.7891 19.5879 28.334 20.2676 29.0254C20.959 29.7051 21.5039 30.502 21.9023 31.416C22.3008 32.3301 22.5 33.3086 22.5 34.3516C22.5 34.8203 22.4355 35.3008 22.3066 35.793C22.1777 36.2852 21.9961 36.7598 21.7617 37.2168C21.5273 37.6738 21.2461 38.0898 20.918 38.4648C20.5898 38.8398 20.2266 39.1504 19.8281 39.3965C20.2383 39.6191 20.6074 39.9238 20.9355 40.3105C21.2637 40.6855 21.5449 41.1016 21.7793 41.5586C22.0137 42.0156 22.1895 42.4961 22.3066 43C22.4355 43.4922 22.5 43.9727 22.5 44.4414ZM7.38281 46.9551H14.9414C15.293 46.9551 15.6211 46.8906 15.9258 46.7617C16.2305 46.6328 16.4941 46.457 16.7168 46.2344C16.9512 46 17.1328 45.7305 17.2617 45.4258C17.3906 45.1211 17.4551 44.793 17.4551 44.4414C17.4551 44.0898 17.3906 43.7617 17.2617 43.457C17.1328 43.1523 16.9512 42.8887 16.7168 42.666C16.4941 42.4316 16.2305 42.25 15.9258 42.1211C15.6211 41.9922 15.293 41.9277 14.9414 41.9277H7.38281V46.9551ZM7.38281 36.8828H14.9414C15.293 36.8828 15.6211 36.8184 15.9258 36.6895C16.2305 36.5605 16.4941 36.3848 16.7168 36.1621C16.9512 35.9277 17.1328 35.6582 17.2617 35.3535C17.3906 35.0371 17.4551 34.7031 17.4551 34.3516C17.4551 34 17.3906 33.6719 17.2617 33.3672C17.1328 33.0625 16.9512 32.7988 16.7168 32.5762C16.4941 32.3418 16.2305 32.1602 15.9258 32.0312C15.6211 31.9023 15.293 31.8379 14.9414 31.8379H7.38281V36.8828ZM44.0332 52H42.873L41.0098 49.416C40.5527 49.8262 40.0664 50.2129 39.5508 50.5762C39.0469 50.9277 38.5137 51.2383 37.9512 51.5078C37.3887 51.7656 36.8086 51.9707 36.2109 52.123C35.625 52.2754 35.0273 52.3516 34.418 52.3516C33.0938 52.3516 31.8457 52.1289 30.6738 51.6836C29.5137 51.2383 28.4941 50.5938 27.6152 49.75C26.748 48.8945 26.0625 47.8516 25.5586 46.6211C25.0547 45.3906 24.8027 43.9902 24.8027 42.4199C24.8027 40.9551 25.0547 39.6133 25.5586 38.3945C26.0625 37.1641 26.748 36.1094 27.6152 35.2305C28.4941 34.3516 29.5137 33.6719 30.6738 33.1914C31.8457 32.6992 33.0938 32.4531 34.418 32.4531C35.0273 32.4531 35.6309 32.5293 36.2285 32.6816C36.8262 32.834 37.4062 33.0449 37.9688 33.3145C38.5312 33.584 39.0645 33.9004 39.5684 34.2637C40.084 34.627 40.5645 35.0195 41.0098 35.4414L42.873 33.209H44.0332V52ZM39.1992 42.4199C39.1992 41.7637 39.0703 41.1309 38.8125 40.5215C38.5664 39.9004 38.2266 39.3555 37.793 38.8867C37.3594 38.4062 36.8496 38.0254 36.2637 37.7441C35.6895 37.4512 35.0742 37.3047 34.418 37.3047C33.7617 37.3047 33.1406 37.416 32.5547 37.6387C31.9805 37.8613 31.4766 38.1895 31.043 38.623C30.6211 39.0566 30.2871 39.5957 30.041 40.2402C29.7949 40.873 29.6719 41.5996 29.6719 42.4199C29.6719 43.2402 29.7949 43.9727 30.041 44.6172C30.2871 45.25 30.6211 45.7832 31.043 46.2168C31.4766 46.6504 31.9805 46.9785 32.5547 47.2012C33.1406 47.4238 33.7617 47.5352 34.418 47.5352C35.0742 47.5352 35.6895 47.3945 36.2637 47.1133C36.8496 46.8203 37.3594 46.4395 37.793 45.9707C38.2266 45.4902 38.5664 44.9453 38.8125 44.3359C39.0703 43.7148 39.1992 43.0762 39.1992 42.4199ZM52.5059 52H47.707V33.1738H48.8672L50.4492 35.4062C51.2227 34.7031 52.1016 34.1641 53.0859 33.7891C54.0703 33.4023 55.0898 33.209 56.1445 33.209H60.3809V37.9902H56.1445C55.6406 37.9902 55.166 38.084 54.7207 38.2715C54.2754 38.459 53.8887 38.7168 53.5605 39.0449C53.2324 39.373 52.9746 39.7598 52.7871 40.2051C52.5996 40.6504 52.5059 41.125 52.5059 41.6289V52ZM81.457 42.4199C81.457 43.8965 81.2051 45.2441 80.7012 46.4629C80.1973 47.6816 79.5117 48.7305 78.6445 49.6094C77.7773 50.4766 76.7578 51.1504 75.5859 51.6309C74.4258 52.1113 73.1777 52.3516 71.8418 52.3516C70.5176 52.3516 69.2695 52.1055 68.0977 51.6133C66.9375 51.1211 65.918 50.4355 65.0391 49.5566C64.1719 48.6777 63.4863 47.6348 62.9824 46.4277C62.4785 45.209 62.2266 43.873 62.2266 42.4199V25.6855H67.043V34.4746C67.3008 34.1465 67.6113 33.8535 67.9746 33.5957C68.3496 33.3379 68.748 33.127 69.1699 32.9629C69.6035 32.7988 70.0488 32.6758 70.5059 32.5938C70.9629 32.5 71.4082 32.4531 71.8418 32.4531C73.1777 32.4531 74.4258 32.7051 75.5859 33.209C76.7578 33.7012 77.7773 34.3926 78.6445 35.2832C79.5117 36.1738 80.1973 37.2285 80.7012 38.4473C81.2051 39.6543 81.457 40.9785 81.457 42.4199ZM76.623 42.4199C76.623 41.6934 76.4941 41.0195 76.2363 40.3984C75.9902 39.7656 75.6504 39.2207 75.2168 38.7637C74.7832 38.3066 74.2734 37.9492 73.6875 37.6914C73.1133 37.4336 72.498 37.3047 71.8418 37.3047C71.1855 37.3047 70.5645 37.4512 69.9785 37.7441C69.4043 38.0254 68.9004 38.4062 68.4668 38.8867C68.0332 39.3555 67.6934 39.9004 67.4473 40.5215C67.2012 41.1309 67.0781 41.7637 67.0781 42.4199C67.0781 43.1465 67.2012 43.8203 67.4473 44.4414C67.6934 45.0625 68.0332 45.6016 68.4668 46.0586C68.9004 46.5156 69.4043 46.8789 69.9785 47.1484C70.5645 47.4062 71.1855 47.5352 71.8418 47.5352C72.498 47.5352 73.1133 47.4062 73.6875 47.1484C74.2734 46.8789 74.7832 46.5156 75.2168 46.0586C75.6504 45.6016 75.9902 45.0625 76.2363 44.4414C76.4941 43.8203 76.623 43.1465 76.623 42.4199Z" fill="#141311"/>
<path d="M88.2976 26.6592H88.4C88.7072 26.6933 88.9461 26.8299 89.1168 27.0688C89.2875 27.3077 89.3728 27.5637 89.3728 27.8368C89.3728 28.0757 89.1339 28.6048 88.656 29.424C88.2123 30.2432 87.9904 30.9088 87.9904 31.4208C87.9904 31.8987 88.0587 32.3595 88.1952 32.8032C88.3317 33.2128 88.7584 34.2368 89.4752 35.8752C91.0453 39.4592 91.8304 42.6677 91.8304 45.5008C91.8304 48.2997 91.0624 50.6208 89.5264 52.464C88.0245 54.3072 86.2155 55.2288 84.0992 55.2288C82.0171 55.2288 80.976 53.9659 80.976 51.44C80.976 48.88 81.8805 46.1493 83.6896 43.248C84.7477 41.5755 85.8912 40.3125 87.12 39.4592C87.4613 39.2203 87.6832 39.2715 87.7856 39.6128C87.9221 39.9541 87.8539 40.2272 87.5808 40.432C85.6011 41.8656 84.0651 44.1355 82.9728 47.2416C81.9829 50.0405 81.8805 51.9861 82.6656 53.0784C82.9387 53.488 83.3312 53.6928 83.8432 53.6928C85.3451 53.6928 86.5227 52.6859 87.376 50.672C88.2293 48.6581 88.656 46.1493 88.656 43.1456C88.656 40.5515 88.3488 38.1451 87.7344 35.9264C87.12 33.7077 86.7787 32.4277 86.7104 32.0864C85.6864 34.032 84.5771 36.2165 83.3824 38.64H82C83.9456 34.7829 85.4475 31.8816 86.5056 29.936C86.6421 27.7515 87.2395 26.6592 88.2976 26.6592Z" fill="#141311"/>
</svg>
