<svg width="32" height="32" viewBox="0 0 32 32" fill="none" xmlns="http://www.w3.org/2000/svg">
<path d="M16 15.18C14.9005 15.18 13.9587 14.788 13.1747 14.004C12.3907 13.22 11.9991 12.2786 12 11.18C12.0009 10.0813 12.3925 9.13909 13.1747 8.35331C13.9569 7.56753 14.8987 7.17687 16 7.18131C17.1014 7.18576 18.0431 7.57687 18.8254 8.35464C19.6076 9.13242 19.9991 10.0746 20 11.1813C20.0009 12.288 19.6094 13.2293 18.8254 14.0053C18.0414 14.7813 17.0996 15.172 16 15.18ZM6.66669 23.4373V22.6266C6.66669 22.0764 6.82669 21.5618 7.14669 21.0826C7.46758 20.6026 7.89869 20.2302 8.44002 19.9653C9.69869 19.3618 10.9582 18.9093 12.2187 18.608C13.4782 18.3058 14.7387 18.1546 16 18.1546C17.2614 18.1546 18.5222 18.3058 19.7827 18.608C21.0431 18.9102 22.3018 19.3626 23.5587 19.9653C24.1009 20.2302 24.532 20.6026 24.852 21.0826C25.1729 21.5618 25.3334 22.0764 25.3334 22.6266V23.4373C25.3334 23.8284 25.2005 24.1573 24.9347 24.424C24.6689 24.6889 24.34 24.8213 23.948 24.8213H8.05335C7.66135 24.8213 7.33246 24.6884 7.06669 24.4226C6.80091 24.1569 6.66758 23.8293 6.66669 23.4373ZM8.00002 23.488H24V22.6253C24 22.3302 23.9045 22.0524 23.7134 21.792C23.5231 21.5324 23.2596 21.3129 22.9227 21.1333C21.8258 20.6018 20.6942 20.1946 19.528 19.912C18.3618 19.6293 17.1858 19.488 16 19.488C14.8142 19.488 13.6382 19.6293 12.472 19.912C11.3058 20.1946 10.1742 20.6018 9.07735 21.1333C8.73958 21.3129 8.47602 21.5324 8.28669 21.792C8.09558 22.0524 8.00002 22.3306 8.00002 22.6266V23.488ZM16 13.8466C16.7334 13.8466 17.3614 13.5853 17.884 13.0626C18.4067 12.54 18.6676 11.912 18.6667 11.1786C18.6658 10.4453 18.4049 9.81776 17.884 9.29598C17.3631 8.7742 16.7351 8.51287 16 8.51198C15.2649 8.51109 14.6374 8.77242 14.1174 9.29598C13.5974 9.81953 13.336 10.4471 13.3334 11.1786C13.3307 11.9102 13.592 12.5382 14.1174 13.0626C14.6427 13.5871 15.2702 13.848 16 13.8453" fill="white"/>
</svg>
