<svg width="48" height="48" viewBox="0 0 48 48" fill="none" xmlns="http://www.w3.org/2000/svg">
<path d="M26.824 25L23.292 28.532C23.1053 28.7187 23.0187 28.9413 23.032 29.2C23.044 29.4587 23.144 29.682 23.332 29.87C23.5187 30.0567 23.75 30.15 24.026 30.15C24.302 30.15 24.5287 30.0567 24.706 29.87L29.446 25.13C29.77 24.8073 29.932 24.4307 29.932 24C29.932 23.5693 29.77 23.1927 29.446 22.87L24.67 18.092C24.4833 17.9053 24.26 17.812 24 17.812C23.74 17.812 23.5173 17.9053 23.332 18.092C23.1467 18.2787 23.0527 18.5107 23.05 18.788C23.0473 19.0653 23.1407 19.292 23.33 19.468L26.824 23H18C17.716 23 17.4787 23.096 17.288 23.288C17.0973 23.48 17.0013 23.718 17 24.002C16.9987 24.286 17.0947 24.5233 17.288 24.714C17.4813 24.9047 17.7187 25 18 25H26.824ZM24.006 42C21.518 42 19.178 41.528 16.986 40.584C14.7953 39.6387 12.8893 38.356 11.268 36.736C9.64667 35.116 8.36333 33.212 7.418 31.024C6.47267 28.836 6 26.4967 6 24.006C6 21.5153 6.47267 19.1753 7.418 16.986C8.362 14.7953 9.64267 12.8893 11.26 11.268C12.8773 9.64667 14.782 8.36333 16.974 7.418C19.166 6.47267 21.506 6 23.994 6C26.482 6 28.822 6.47267 31.014 7.418C33.2047 8.362 35.1107 9.64333 36.732 11.262C38.3533 12.8807 39.6367 14.7853 40.582 16.976C41.5273 19.1667 42 21.506 42 23.994C42 26.482 41.528 28.822 40.584 31.014C39.64 33.206 38.3573 35.112 36.736 36.732C35.1147 38.352 33.2107 39.6353 31.024 40.582C28.8373 41.5287 26.498 42.0013 24.006 42ZM24 40C28.4667 40 32.25 38.45 35.35 35.35C38.45 32.25 40 28.4667 40 24C40 19.5333 38.45 15.75 35.35 12.65C32.25 9.55 28.4667 8 24 8C19.5333 8 15.75 9.55 12.65 12.65C9.55 15.75 8 19.5333 8 24C8 28.4667 9.55 32.25 12.65 35.35C15.75 38.45 19.5333 40 24 40Z" fill="#1E1E1E"/>
</svg>
