<svg width="80" height="16" viewBox="0 0 80 16" fill="none" xmlns="http://www.w3.org/2000/svg">
<path d="M8.00005 11.5133L10.7667 13.1867C11.2734 13.4933 11.8934 13.04 11.76 12.4667L11.0267 9.32L13.4734 7.2C13.92 6.81333 13.68 6.08 13.0934 6.03333L9.87338 5.76L8.61338 2.78667C8.38672 2.24667 7.61338 2.24667 7.38671 2.78667L6.12671 5.75333L2.90672 6.02667C2.32005 6.07333 2.08005 6.80667 2.52672 7.19333L4.97338 9.31333L4.24005 12.46C4.10672 13.0333 4.72672 13.4867 5.23338 13.18L8.00005 11.5133Z" fill="#BA9B88"/>
<path d="M24 11.5133L26.7667 13.1867C27.2734 13.4933 27.8934 13.04 27.76 12.4667L27.0267 9.32L29.4734 7.2C29.92 6.81333 29.68 6.08 29.0934 6.03333L25.8734 5.76L24.6134 2.78667C24.3867 2.24667 23.6134 2.24667 23.3867 2.78667L22.1267 5.75333L18.9067 6.02667C18.32 6.07333 18.08 6.80667 18.5267 7.19333L20.9734 9.31333L20.24 12.46C20.1067 13.0333 20.7267 13.4867 21.2334 13.18L24 11.5133Z" fill="#BA9B88"/>
<path d="M40 11.5133L42.7667 13.1867C43.2734 13.4933 43.8934 13.04 43.76 12.4667L43.0267 9.32L45.4734 7.2C45.92 6.81333 45.68 6.08 45.0934 6.03333L41.8734 5.76L40.6134 2.78667C40.3867 2.24667 39.6134 2.24667 39.3867 2.78667L38.1267 5.75333L34.9067 6.02667C34.32 6.07333 34.08 6.80667 34.5267 7.19333L36.9734 9.31333L36.24 12.46C36.1067 13.0333 36.7267 13.4867 37.2334 13.18L40 11.5133Z" fill="#BA9B88"/>
<path d="M56 11.5133L58.7667 13.1867C59.2734 13.4933 59.8934 13.04 59.76 12.4667L59.0267 9.32L61.4734 7.2C61.92 6.81333 61.68 6.08 61.0934 6.03333L57.8734 5.76L56.6134 2.78667C56.3867 2.24667 55.6134 2.24667 55.3867 2.78667L54.1267 5.75333L50.9067 6.02667C50.32 6.07333 50.08 6.80667 50.5267 7.19333L52.9734 9.31333L52.24 12.46C52.1067 13.0333 52.7267 13.4867 53.2334 13.18L56 11.5133Z" fill="#BA9B88"/>
<path d="M72 11.5133L74.7667 13.1867C75.2734 13.4933 75.8934 13.04 75.76 12.4667L75.0267 9.32L77.4734 7.2C77.92 6.81333 77.68 6.08 77.0934 6.03333L73.8734 5.76L72.6134 2.78667C72.3867 2.24667 71.6134 2.24667 71.3867 2.78667L70.1267 5.75333L66.9067 6.02667C66.32 6.07333 66.08 6.80667 66.5267 7.19333L68.9734 9.31333L68.24 12.46C68.1067 13.0333 68.7267 13.4867 69.2334 13.18L72 11.5133Z" fill="#BA9B88"/>
</svg>
